<?xml version="1.0" encoding="utf-8"?>
<!-- Generator: Adobe Illustrator 18.1.1, SVG Export Plug-In . SVG Version: 6.00 Build 0)  -->
<svg version="1.1" id="Layer_1" xmlns="http://www.w3.org/2000/svg" xmlns:xlink="http://www.w3.org/1999/xlink" x="0px" y="0px"
	 width="224px" height="76px" viewBox="0 0 224 76" enable-background="new 0 0 224 76" xml:space="preserve">
<g>
	<circle fill="#11186D" cx="38.7" cy="38" r="37.5"/>
	<path fill="#0B78DB" stroke="#11186D" stroke-width="2.9201" stroke-miterlimit="10" d="M61.3,58.2C50,63.4,38.7,58.3,33.5,47
		c-3.2-7.1-4.1-15-0.3-21.2c-8.1,6.8-9.3,18.4-4.7,28.5C34,66.5,45.9,71.9,58.1,66.4c8.1-3.7,13.1-11.3,13.9-19.6
		C69.9,51.7,66.6,55.9,61.3,58.2z"/>
	<path fill="#41AFF2" stroke="#11186D" stroke-width="2.9201" stroke-miterlimit="10" d="M53.1,69.5c-14.7,0-26.6-11.9-26.6-26.6
		s11.9-26.6,26.6-26.6c1.5,0,2.9,0.1,4.3,0.4c-4-2.1-8.6-3.3-13.5-3.3c-16.2,0-29.4,13.2-29.4,29.4s13.2,29.4,29.4,29.4
		c4.6,0,7.6-2,11.5-4C54.2,68.4,54.4,69.5,53.1,69.5z"/>
	<path fill="#FFFFFF" d="M13,42.8c0-16.2,13.2-29.4,29.4-29.4c12.5,0,23.1,7.8,27.4,18.7C67.1,17.4,54.2,6.2,38.6,6.2
		C21.1,6.2,6.9,20.4,6.9,37.9c0,12.8,7.5,23.8,18.4,28.8C17.9,61.4,13,52.7,13,42.8z"/>
	<g>
		<path fill="#11186D" d="M84.4,40.7c0-6.2,4.7-10.4,10.7-10.4c4.4,0,7,2.4,8.4,4.9l-3.7,1.8c-0.8-1.6-2.6-2.9-4.7-2.9
			c-3.6,0-6.3,2.8-6.3,6.6c0,3.8,2.6,6.6,6.3,6.6c2.1,0,3.9-1.3,4.7-2.9l3.7,1.8c-1.4,2.5-4,4.9-8.4,4.9
			C89.1,51.1,84.4,46.9,84.4,40.7z"/>
		<path fill="#11186D" d="M104.5,40.7c0-6,4.4-10.4,10.5-10.4c6.1,0,10.5,4.3,10.5,10.4s-4.4,10.4-10.5,10.4
			C108.9,51.1,104.5,46.8,104.5,40.7z M121,40.7c0-3.8-2.4-6.6-6.1-6.6c-3.7,0-6.1,2.8-6.1,6.6c0,3.7,2.4,6.6,6.1,6.6
			C118.6,47.3,121,44.4,121,40.7z"/>
		<path fill="#11186D" d="M141.6,50.7l-9.6-13.1v13.1h-4.3v-20h4.4l9.3,12.6V30.7h4.3v20H141.6z"/>
		<path fill="#11186D" d="M148.2,40.7c0-6.2,4.7-10.4,10.7-10.4c4.4,0,7,2.4,8.4,4.9l-3.7,1.8c-0.8-1.6-2.6-2.9-4.7-2.9
			c-3.6,0-6.3,2.8-6.3,6.6c0,3.8,2.6,6.6,6.3,6.6c2.1,0,3.9-1.3,4.7-2.9l3.7,1.8c-1.4,2.5-4,4.9-8.4,4.9
			C152.8,51.1,148.2,46.9,148.2,40.7z"/>
		<path fill="#11186D" d="M169.7,50.7v-20h14.2v3.8H174v4.2h9.7v3.8H174V47h9.9v3.8H169.7z"/>
		<path fill="#11186D" d="M187.3,50.7v-20h9.4c4.4,0,6.7,2.9,6.7,6.5c0,3.5-2.4,6.5-6.7,6.5h-5.1v7.1H187.3z M199,37.2
			c0-1.7-1.3-2.7-2.9-2.7h-4.5v5.4h4.5C197.7,39.9,199,38.8,199,37.2z"/>
		<path fill="#11186D" d="M210,50.7V34.4h-5.9v-3.8h16v3.8h-5.8v16.3H210z"/>
	</g>
	<g>
		<path fill="#0B78DB" d="M91,66.7l-1.2-4.6l-1.2,4.6h-1.5L85.3,60h1.6l1.2,4.8l1.3-4.8h1.1l1.3,4.8l1.2-4.8h1.6l-1.9,6.7H91z"/>
		<path fill="#0B78DB" d="M105.8,66.7l-0.4-1.1h-2.9l-0.4,1.1h-1.6l2.6-6.7h1.8l2.6,6.7H105.8z M104,61.4l-1,2.9h2.1L104,61.4z"/>
		<path fill="#0B78DB" d="M115.5,66.7v-5.4h-2V60h5.3v1.3h-1.9v5.4H115.5z"/>
		<path fill="#0B78DB" d="M126.2,66.7V60h4.7v1.3h-3.3v1.4h3.2v1.3h-3.2v1.5h3.3v1.3H126.2z"/>
		<path fill="#0B78DB" d="M142.4,66.7l-1.3-2.4h-1v2.4h-1.4V60h3.1c1.4,0,2.2,0.9,2.2,2.2c0,1.2-0.7,1.8-1.5,2l1.5,2.5H142.4z
			 M142.5,62.2c0-0.6-0.4-0.9-1-0.9H140v1.8h1.5C142.1,63.1,142.5,62.7,142.5,62.2z"/>
		<path fill="#0B78DB" d="M151.1,65.7l0.8-1.1c0.5,0.5,1.2,0.9,2.1,0.9c0.8,0,1.2-0.4,1.2-0.7c0-1.2-3.8-0.4-3.8-2.9
			c0-1.1,1-2,2.5-2c1.1,0,1.9,0.3,2.6,0.9l-0.8,1c-0.5-0.5-1.3-0.7-1.9-0.7c-0.6,0-1,0.3-1,0.7c0,1.1,3.8,0.4,3.8,2.8
			c0,1.2-0.9,2.1-2.7,2.1C152.6,66.8,151.7,66.4,151.1,65.7z"/>
		<path fill="#0B78DB" d="M164,66.7V60h3.1c1.5,0,2.2,1,2.2,2.2c0,1.2-0.8,2.2-2.2,2.2h-1.7v2.4H164z M168,62.2c0-0.6-0.4-0.9-1-0.9
			h-1.5v1.8h1.5C167.5,63.1,168,62.7,168,62.2z"/>
		<path fill="#0B78DB" d="M176.5,63.3c0-2,1.5-3.5,3.5-3.5c2,0,3.5,1.4,3.5,3.5s-1.5,3.5-3.5,3.5C178,66.8,176.5,65.4,176.5,63.3z
			 M182,63.3c0-1.3-0.8-2.2-2-2.2c-1.2,0-2,0.9-2,2.2c0,1.2,0.8,2.2,2,2.2C181.2,65.5,182,64.6,182,63.3z"/>
		<path fill="#0B78DB" d="M194.7,66.7l-1.3-2.4h-1v2.4H191V60h3.1c1.4,0,2.2,0.9,2.2,2.2c0,1.2-0.7,1.8-1.5,2l1.5,2.5H194.7z
			 M194.9,62.2c0-0.6-0.4-0.9-1-0.9h-1.5v1.8h1.5C194.5,63.1,194.9,62.7,194.9,62.2z"/>
		<path fill="#0B78DB" d="M205.4,66.7v-5.4h-2V60h5.3v1.3h-1.9v5.4H205.4z"/>
		<path fill="#0B78DB" d="M215.6,65.7l0.8-1.1c0.5,0.5,1.2,0.9,2.1,0.9c0.8,0,1.2-0.4,1.2-0.7c0-1.2-3.8-0.4-3.8-2.9
			c0-1.1,1-2,2.5-2c1.1,0,1.9,0.3,2.6,0.9l-0.8,1c-0.5-0.5-1.3-0.7-1.9-0.7c-0.6,0-1,0.3-1,0.7c0,1.1,3.8,0.4,3.8,2.8
			c0,1.2-0.9,2.1-2.7,2.1C217.2,66.8,216.3,66.4,215.6,65.7z"/>
	</g>
	<line fill="none" stroke="#41AFF2" stroke-width="2" stroke-miterlimit="10" x1="84" y1="55.5" x2="223" y2="55.5"/>
</g>
</svg>
